<svg width="32" height="25" viewBox="0 0 32 25" fill="none" xmlns="http://www.w3.org/2000/svg">
<path d="M2.28571 5H29.7143C30.976 5 32 3.88 32 2.5C32 1.12 30.976 0 29.7143 0H2.28571C1.024 0 0 1.12 0 2.5C0 3.88 1.024 5 2.28571 5ZM29.7143 10H2.28571C1.024 10 0 11.12 0 12.5C0 13.88 1.024 15 2.28571 15H29.7143C30.976 15 32 13.88 32 12.5C32 11.12 30.976 10 29.7143 10ZM29.7143 20H2.28571C1.024 20 0 21.12 0 22.5C0 23.88 1.024 25 2.28571 25H29.7143C30.976 25 32 23.88 32 22.5C32 21.12 30.976 20 29.7143 20Z" fill="white"/>
</svg>
